# xmcd
#
# Track frame offsets:
#	150
#	13381
#	28057
#	50710
#	62476
#	77819
#	96173
#	113190
#	123129
#	141329
#	156832
#
# Disc length: 2257 seconds
#
# Revision: 0
# Processed by: cddbd v1.5.2PL0 Copyright (c) Steve Scherf et al.
# Submitted via: EasyCDDAExtractor 12.0.1.1
#
DISCID=9508cf0b
DTITLE=Electric Mary - Down To The Bone
DYEAR=2009
DGENRE=Hard Rock
TTITLE0=Sorry
TTITLE1=Let Me Out
TTITLE2=One In A Million
TTITLE3=No One Does It Better Than Me
TTITLE4=Luv Me
TTITLE5=Right Down To The Bone
TTITLE6=Gasoline And Guns
TTITLE7=One Foot In The Grave
TTITLE8=Do Me (Long Way From Home)
TTITLE9=All Comin Down
TTITLE10=Spread The Electric Luv
EXTD=
EXTT0=
EXTT1=
EXTT2=
EXTT3=
EXTT4=
EXTT5=
EXTT6=
EXTT7=
EXTT8=
EXTT9=
EXTT10=
PLAYORDER=
